<svg width="89" height="102" viewBox="0 0 89 102" fill="none" xmlns="http://www.w3.org/2000/svg" preserveAspectRatio="none">
<rect width="22.1142" height="18.0935" rx="5" transform="matrix(0.707449 -0.706764 0.707449 0.706764 57.2645 19.001)" fill="white"/>
<path d="M59.3978 14.0276L67.2202 6.21282C69.1165 4.31833 73.9047 1.52395 77.887 5.50238L80.3759 7.9889L82.8649 10.4754C84.7612 12.3699 87.5583 17.1535 83.576 21.1319C79.5937 25.1104 76.2277 28.4731 75.0425 29.6571" stroke="white" stroke-width="2" stroke-linecap="round"/>
<rect width="22.1142" height="18.0935" rx="5" transform="matrix(-0.707449 -0.706764 0.707449 -0.706764 19.0487 31.759)" fill="white"/>
<path d="M14.0709 29.6277L6.24852 21.8129C4.35219 19.9184 1.55511 15.1348 5.5374 11.1564L8.02632 8.66989L10.5153 6.18337C12.4116 4.28888 17.1998 1.49451 21.1821 5.47294C25.1644 9.45137 28.5303 12.8141 29.7155 13.9981" stroke="white" stroke-width="2" stroke-linecap="round"/>
<rect width="22.1142" height="18.0935" rx="5" transform="matrix(0.707449 0.706764 -0.707449 0.706764 70.5106 70.2437)" fill="white"/>
<path d="M75.4884 72.3751L83.3107 80.1898C85.2071 82.0843 88.0042 86.8679 84.0219 90.8463L81.5329 93.3329L79.044 95.8194C77.1477 97.7139 72.3595 100.508 68.3772 96.5298C64.3949 92.5514 61.0289 89.1887 59.8437 88.0046" stroke="white" stroke-width="2" stroke-linecap="round"/>
<rect width="22.1142" height="18.0935" rx="5" transform="matrix(-0.707449 0.706764 -0.707449 -0.706764 31.2894 83.0286)" fill="white"/>
<path d="M29.156 88.0017L21.3337 95.8165C19.4373 97.711 14.6491 100.505 10.6668 96.5269L8.17791 94.0404L5.68898 91.5539C3.79265 89.6594 0.995573 84.8758 4.97786 80.8974C8.96014 76.9189 12.3261 73.5562 13.5113 72.3722" stroke="white" stroke-width="2" stroke-linecap="round"/>
<ellipse cx="44.7798" cy="50.7353" rx="28.159" ry="28.1317" fill="white"/>
</svg>
